:SAMPLES-PER-SECOND 30
:FULLY-SPECIFIED
:DEGREES
36
root  12.6163 39.6832 1.59267 12.4558 -85.3317 -16.3448
RightUpLeg  4.06803 -10.4826 -13.0668
RightLeg  0.0354415 -11.0827 -0.945439
RightFoot  6.98603 -2.53133 15.897
RightToes  -5.28226e-011 1.30204e-014 -6.03759e-014
Spine  5.60014 -0.504172 1.87505
Spine1  1.27707 -0.382147 -0.387309
HEad  -2.29235 -4.31767 -2.15557
LeftShoulder1  2.48995 -5.49369 -21.3101
LeftArm  5.20804 12.3896 -52.6717
LeftForeArm  6.66886 -9.45133 -13.5939
LeftHand  -0.392633 0.869069 10.0153
RightShoulder  1.73668 3.33567 18.9539
RightArm  1.26954 -9.10721 54.4522
RightForeArm  25.9105 5.07476 14.8282
RightHand  -0.228004 -3.60296 -14.1162
LeftUpLeg  4.40691 13.6903 17.4367
LeftLeg  1.19238 2.20287 1.78284
LeftFoot  3.25781 2.33115 -18.2523
LeftToes  -2.75829e-010 5.07641e-011 -5.51782e-011
37
root  12.6211 39.683 1.5937 12.4919 -85.3363 -16.4283
RightUpLeg  4.1502 -10.478 -13.0727
RightLeg  -0.0438895 -11.0768 -0.92462
RightFoot  7.01211 -2.53245 15.877
RightToes  -5.28226e-011 1.30204e-014 -6.03759e-014
Spine  5.75771 -0.501316 1.87643
Spine1  1.10165 -0.373656 -0.424299
HEad  -2.28141 -3.99434 -2.15401
LeftShoulder1  2.50288 -5.52718 -21.3533
LeftArm  5.2554 12.4227 -52.5735
LeftForeArm  6.80256 -9.38585 -13.6244
LeftHand  -0.397323 0.826373 10.0571
RightShoulder  1.71952 3.2796 18.908
RightArm  1.3637 -8.9712 54.4832
RightForeArm  25.7168 5.16539 14.8115
RightHand  -0.228933 -3.63244 -14.4227
LeftUpLeg  4.40307 13.6875 17.4492
LeftLeg  1.28581 2.18749 1.79757
LeftFoot  3.26603 2.33011 -18.2998
LeftToes  -2.75829e-010 5.07641e-011 -5.51782e-011
38
root  12.6245 39.682 1.59392 12.6257 -85.3379 -16.5876
RightUpLeg  4.19153 -10.4696 -13.0638
RightLeg  -0.0860645 -11.0825 -0.914126
RightFoot  7.03773 -2.53653 15.889
RightToes  -5.28226e-011 1.30204e-014 -6.03759e-014
Spine  5.85171 -0.527662 1.88784
Spine1  0.969781 -0.387127 -0.499889
HEad  -2.3315 -3.61964 -2.12783
LeftShoulder1  2.50464 -5.54376 -21.32
LeftArm  5.07608 12.4476 -52.5306
LeftForeArm  7.17847 -9.21916 -13.6758
LeftHand  -0.402953 0.694735 9.98828
RightShoulder  1.70324 3.21225 18.9214
RightArm  1.88344 -8.8159 54.5247
RightForeArm  25.1634 5.44535 14.7859
RightHand  -0.210982 -3.81141 -14.7076
LeftUpLeg  4.36073 13.6872 17.4625
LeftLeg  1.40773 2.17606 1.81648
LeftFoot  3.25655 2.32935 -18.3367
LeftToes  -2.75829e-010 5.07641e-011 -5.51782e-011
39
root  12.6315 39.6789 1.59362 12.9668 -85.3346 -16.9255
RightUpLeg  4.15276 -10.4527 -13.0297
RightLeg  -0.0464021 -11.0978 -0.929465
RightFoot  7.03913 -2.54317 15.9239
RightToes  -5.28226e-011 1.30204e-014 -6.03759e-014
Spine  5.96385 -0.550497 1.95698
Spine1  0.785772 -0.384715 -0.603051
HEad  -2.38545 -3.36819 -2.06197
LeftShoulder1  2.51513 -5.60162 -21.2555
LeftArm  4.87407 12.4824 -52.495
LeftForeArm  7.50563 -9.06083 -13.723
LeftHand  -0.408015 0.514401 9.80326
RightShoulder  1.71017 3.23799 18.9276
RightArm  2.36082 -8.78192 54.6206
RightForeArm  24.5445 5.75359 14.7478
RightHand  -0.186431 -4.01462 -14.7565
LeftUpLeg  4.30738 13.6895 17.4838
LeftLeg  1.48439 2.17953 1.82971
LeftFoot  3.22047 2.32868 -18.3605
LeftToes  -2.75829e-010 5.07641e-011 -5.51782e-011
40
root  12.644 39.675 1.59138 13.4403 -85.2857 -17.3891
RightUpLeg  4.10958 -10.4154 -12.9574
RightLeg  -0.00616891 -11.1779 -0.954955
RightFoot  7.03267 -2.54607 15.9243
RightToes  -5.28226e-011 1.30204e-014 -6.03759e-014
Spine  6.1171 -0.56817 2.04621
Spine1  0.571799 -0.378093 -0.691816
HEad  -2.44852 -3.29731 -1.98522
LeftShoulder1  2.53384 -5.69333 -21.179
LeftArm  4.8027 12.4751 -52.4734
LeftForeArm  7.54702 -8.95597 -13.7682
LeftHand  -0.411737 0.400112 9.64513
RightShoulder  1.73021 3.32175 18.9077
RightArm  2.49448 -8.81435 54.7395
RightForeArm  24.2354 5.92851 14.7102
RightHand  -0.178711 -4.06396 -14.615
LeftUpLeg  4.22592 13.6999 17.5263
LeftLeg  1.55169 2.12549 1.84377
LeftFoot  3.18586 2.32908 -18.3887
LeftToes  -2.75829e-010 5.07641e-011 -5.51782e-011
41
root  12.6577 39.6739 1.58373 13.8877 -85.1985 -17.8258
RightUpLeg  4.10758 -10.3601 -12.8581
RightLeg  -0.0315473 -11.3236 -0.972197
RightFoot  7.05915 -2.54624 15.8911
RightToes  -5.28226e-011 1.30204e-014 -6.03759e-014
Spine  6.25994 -0.58858 2.09023
Spine1  0.384032 -0.387453 -0.742955
HEad  -2.52531 -3.29702 -1.93983
LeftShoulder1  2.54139 -5.74852 -21.0908
LeftArm  4.78028 12.3942 -52.4918
LeftForeArm  7.44126 -8.85575 -13.8211
LeftHand  -0.413 0.428877 9.69731
RightShoulder  1.73833 3.36328 18.8694
RightArm  2.50109 -8.7929 54.8601
RightForeArm  24.2748 5.95602 14.7008
RightHand  -0.194157 -3.92909 -14.5178
LeftUpLeg  4.10019 13.7235 17.5786
LeftLeg  1.65964 2.01128 1.86589
LeftFoot  3.18287 2.33002 -18.4132
LeftToes  -2.75829e-010 5.07641e-011 -5.51782e-011
42
root  12.6661 39.674 1.57516 14.1968 -85.1331 -18.1158
RightUpLeg  4.11062 -10.3147 -12.7768
RightLeg  -0.079946 -11.4461 -0.980252
RightFoot  7.10252 -2.5476 15.8855
RightToes  -5.28226e-011 1.30204e-014 -6.03759e-014
Spine  6.35196 -0.603536 2.10079
Spine1  0.223472 -0.395279 -0.788604
HEad  -2.59453 -3.28152 -1.91353
LeftShoulder1  2.53282 -5.74448 -21.0048
LeftArm  4.72445 12.3017 -52.53
LeftForeArm  7.42016 -8.7745 -13.8553
LeftHand  -0.415258 0.531384 9.94647
RightShoulder  1.7278 3.33392 18.8205
RightArm  2.6265 -8.72332 55.0005
RightForeArm  24.4071 5.90962 14.7293
RightHand  -0.212169 -3.78716 -14.5697
LeftUpLeg  3.99856 13.744 17.6177
LeftLeg  1.73162 1.94077 1.87974
LeftFoot  3.2057 2.33071 -18.4222
LeftToes  -2.75829e-010 5.07641e-011 -5.51782e-011
43
root  12.6681 39.6747 1.57105 14.3262 -85.1119 -18.2271
RightUpLeg  4.10168 -10.3013 -12.7465
RightLeg  -0.0998249 -11.4889 -0.98147
RightFoot  7.10829 -2.55074 15.9144
RightToes  -5.28226e-011 1.30204e-014 -6.03759e-014
Spine  6.40808 -0.606744 2.15126
Spine1  0.084329 -0.374459 -0.901662
HEad  -2.65113 -3.29407 -1.8659
LeftShoulder1  2.52292 -5.73522 -20.9197
LeftArm  4.71694 12.2596 -52.5615
LeftForeArm  7.44755 -8.79775 -13.8393
LeftHand  -0.418256 0.603892 10.1634
RightShoulder  1.71393 3.28062 18.8146
RightArm  2.83282 -8.6802 55.1142
RightForeArm  24.3928 5.86801 14.77
RightHand  -0.211181 -3.80276 -14.6405
LeftUpLeg  3.99383 13.7524 17.6376
LeftLeg  1.68115 1.94752 1.87046
LeftFoot  3.22199 2.3312 -18.4174
LeftToes  -2.75829e-010 5.07641e-011 -5.51782e-011
44
root  12.6696 39.6759 1.57033 14.2628 -85.099 -18.1664
RightUpLeg  4.11283 -10.3107 -12.7543
RightLeg  -0.105471 -11.4908 -0.973875
RightFoot  7.08276 -2.55242 15.9211
RightToes  -5.28226e-011 1.30204e-014 -6.03759e-014
Spine  6.47103 -0.606819 2.25491
Spine1  -0.0113209 -0.332069 -1.10032
HEad  -2.72296 -3.3736 -1.81944
LeftShoulder1  2.51799 -5.75393 -20.804
LeftArm  4.81095 12.2254 -52.6131
LeftForeArm  7.38034 -8.90503 -13.7973
LeftHand  -0.416253 0.652037 10.2129
RightShoulder  1.71025 3.24054 18.9184
RightArm  3.0709 -8.66929 55.099
RightForeArm  24.1786 5.89732 14.7906
RightHand  -0.197636 -3.91173 -14.6284
LeftUpLeg  4.04911 13.754 17.6418
LeftLeg  1.57234 1.93989 1.85438
LeftFoot  3.21631 2.33123 -18.3952
LeftToes  -2.75829e-010 5.07641e-011 -5.51782e-011
45
root  12.6755 39.677 1.56919 14.006 -85.0654 -17.9341
RightUpLeg  4.15112 -10.3208 -12.7724
RightLeg  -0.117143 -11.5072 -0.967935
RightFoot  7.08075 -2.55241 15.9001
RightToes  -5.28226e-011 1.30204e-014 -6.03759e-014
Spine  6.56716 -0.609484 2.33192
Spine1  -0.0689673 -0.297902 -1.28427
HEad  -2.82942 -3.45505 -1.8482
LeftShoulder1  2.51179 -5.77206 -20.6758
LeftArm  4.89212 12.1312 -52.7008
LeftForeArm  7.29131 -8.96333 -13.781
LeftHand  -0.4124 0.696756 10.2103
RightShoulder  1.71189 3.20494 19.091
RightArm  3.39002 -8.65316 54.9637
RightForeArm  23.8793 5.9999 14.7903
RightHand  -0.191257 -3.96048 -14.6365
LeftUpLeg  4.07925 13.7502 17.6285
LeftLeg  1.51938 1.87903 1.85541
LeftFoot  3.21156 2.33058 -18.3536
LeftToes  -2.75829e-010 5.07641e-011 -5.51782e-011
46
root  12.6829 39.6779 1.569 13.6112 -85.0139 -17.5622
RightUpLeg  4.18426 -10.3256 -12.7933
RightLeg  -0.122741 -11.5504 -0.970717
RightFoot  7.10403 -2.55429 15.9097
RightToes  -5.28226e-011 1.30204e-014 -6.03759e-014
Spine  6.68062 -0.612899 2.32572
Spine1  -0.126602 -0.288892 -1.34037
HEad  -2.94918 -3.47069 -1.96112
LeftShoulder1  2.50827 -5.7727 -20.6332
LeftArm  4.88236 12.009 -52.7562
LeftForeArm  7.33507 -8.94619 -13.7869
LeftHand  -0.418258 0.655606 10.2695
RightShoulder  1.70544 3.15528 19.1924
RightArm  3.68451 -8.63114 54.8576
RightForeArm  23.6747 6.07089 14.7971
RightHand  -0.192824 -3.95408 -14.7525
LeftUpLeg  4.06619 13.7329 17.5996
LeftLeg  1.5179 1.83583 1.86867
LeftFoot  3.23696 2.33075 -18.3175
LeftToes  -2.75829e-010 5.07641e-011 -5.51782e-011
